<svg xmlns="http://www.w3.org/2000/svg" viewBox="0 0 349.40801 447.37997"><title>ghostin_sad</title><g id="Layer_2" data-name="Layer 2"><g id="Layer_1-2" data-name="Layer 1"><path d="M232.93841,443.37994a21.834,21.834,0,0,1-14.939-5.6875l-22.917-21.25049a30.45728,30.45728,0,0,0-40.75684,0l-22.917,21.25049a22.464,22.464,0,0,1-29.87842,0L78.61321,416.442a30.45728,30.45728,0,0,0-40.75684,0,21.46883,21.46883,0,0,1-14.73047,5.3418,24.03328,24.03328,0,0,1-13.647-4.0459c-2.45068-1.73975-5.36328-4.75342-5.47559-9.29395L42.64544,148.16119c1.001-6.74268,1.75049-14.07227,2.3584-23.06592a130.006,130.006,0,0,1,259.40039,0c.60791,8.99365,1.35742,16.32324,2.3584,23.06592l38.64209,260.28174c-.21094,8.24854-10.02393,13.34082-19.123,13.34082a21.46345,21.46345,0,0,1-14.72949-5.3418,30.45792,30.45792,0,0,0-40.75732,0l-22.917,21.25049A21.83429,21.83429,0,0,1,232.93841,443.37994Z" fill="#fff"/><path d="M174.70415,8a126.00866,126.00866,0,0,1,125.709,117.36517c.61545,9.10284,1.37582,16.53308,2.39282,23.38339l38.58435,259.8942c-.41348,5.48863-8.0051,9.14119-15.10849,9.14119a17.49471,17.49471,0,0,1-12.01007-4.27516,34.45695,34.45695,0,0,0-46.19678-.00008l-22.91708,21.25055a18.46711,18.46711,0,0,1-24.43854,0l-22.91692-21.25047a34.45695,34.45695,0,0,0-46.19678-.00008l-22.91707,21.25055a18.46712,18.46712,0,0,1-24.43855,0l-22.917-21.25047a34.45692,34.45692,0,0,0-46.19684,0A17.49478,17.49478,0,0,1,23.12615,417.784c-7.1034,0-14.695-3.65256-15.10848-9.14119l38.5844-259.8942c1.017-6.85031,1.77739-14.28055,2.39285-23.38339A126.00863,126.00863,0,0,1,174.70415,8m0-8h-.00023A134.00863,134.00863,0,0,0,41.01315,124.8255c-.51446,7.60876-1.20438,15.20468-2.32431,22.74823L0,408.17142C0,418.89586,11.39481,425.784,23.12619,425.784a25.49786,25.49786,0,0,0,17.44958-6.4091h.00008a26.46028,26.46028,0,0,1,35.31762,0l22.91708,21.25053a26.46045,26.46045,0,0,0,35.31761,0l22.91708-21.25053a26.46027,26.46027,0,0,1,35.31761,0l22.917,21.25053a26.46045,26.46045,0,0,0,35.31761,0l22.91708-21.25053a26.46025,26.46025,0,0,1,35.3176,0h.00009a25.49377,25.49377,0,0,0,17.44958,6.4091c11.73019,0,23.12619-6.88913,23.12619-17.61256L310.71923,147.57373c-1.11993-7.54355-1.80984-15.13947-2.32431-22.74823A134.00867,134.00867,0,0,0,174.70415,0Z" fill="#1a4b7f"/><path d="M135.704,102.00006a21,21,0,0,1-21,21h0a21,21,0,0,1-21-21" fill="none" stroke="#1a4b7f" stroke-linecap="round" stroke-miterlimit="10" stroke-width="10"/><path d="M230.704,102.00006a21,21,0,0,1-21,21h0a21,21,0,0,1-21-21" fill="none" stroke="#1a4b7f" stroke-linecap="round" stroke-miterlimit="10" stroke-width="10"/><path d="M139.704,194a21,21,0,0,1,21-21h0a21,21,0,0,1,21,21" fill="none" stroke="#1a4b7f" stroke-linecap="round" stroke-miterlimit="10" stroke-width="10"/><path d="M160.114,346.22841l-18.17648-15.95984a5.97819,5.97819,0,0,1-1.84347-5.98863L155.30659,265.439l-5.93285-13.62159a3.36476,3.36476,0,0,1,.81748-3.82968l5.60184-5.109A3.36476,3.36476,0,0,1,158.06043,242h12.14763a3.36476,3.36476,0,0,1,2.26738.87868l5.60184,5.109a3.36476,3.36476,0,0,1,.81748,3.82968L172.96191,265.439l15.21254,58.84094a5.97819,5.97819,0,0,1-1.84347,5.98863L168.1545,346.22841A6.09312,6.09312,0,0,1,160.114,346.22841Z" fill="#1a4b7f"/><line x1="144.65252" y1="266.3522" x2="189.70403" y2="266.3522" fill="#1a4b7f" stroke="#fff" stroke-miterlimit="10" stroke-width="8"/><path d="M243.3897,155.00006l-3.43183,18.30309a7.40945,7.40945,0,0,0,3.47041,7.719h0a7.40945,7.40945,0,0,0,10.27-2.721l.51776-.92046a7.40945,7.40945,0,0,0-.44487-7.96194Z" fill="none" stroke="#1a4b7f" stroke-linecap="round" stroke-miterlimit="10" stroke-width="10"/><path d="M263.3897,211.00006l-3.43183,18.30309a7.40945,7.40945,0,0,0,3.47041,7.719h0a7.40945,7.40945,0,0,0,10.27-2.721l.51776-.92046a7.40945,7.40945,0,0,0-.44487-7.96194Z" fill="none" stroke="#1a4b7f" stroke-linecap="round" stroke-miterlimit="10" stroke-width="10"/></g></g></svg>