<svg xmlns="http://www.w3.org/2000/svg" viewBox="0 0 349.40796 501.95596"><title>ghostin_cool</title><g id="Layer_2" data-name="Layer 2"><g id="Layer_1-2" data-name="Layer 1"><path d="M232.93835,497.95593a21.834,21.834,0,0,1-14.939-5.6875l-22.917-21.25049a30.45728,30.45728,0,0,0-40.75684,0l-22.917,21.25049a22.464,22.464,0,0,1-29.87842,0l-22.917-21.25049a30.45728,30.45728,0,0,0-40.75684,0,21.46883,21.46883,0,0,1-14.73047,5.3418,24.03328,24.03328,0,0,1-13.647-4.0459C7.0282,470.5741,4.1156,467.56042,4.0033,463.0199L42.64539,202.73718c1.001-6.74268,1.75049-14.07227,2.3584-23.06592a130.006,130.006,0,0,1,259.40039,0c.60791,8.99365,1.35742,16.32324,2.3584,23.06592l38.64209,260.28174c-.21094,8.24854-10.02393,13.34082-19.123,13.34082a21.46345,21.46345,0,0,1-14.72949-5.3418,30.45792,30.45792,0,0,0-40.75732,0l-22.917,21.25049A21.83429,21.83429,0,0,1,232.93835,497.95593Z" fill="#fff"/><path d="M174.7041,62.576a126.00844,126.00844,0,0,1,125.709,117.36508c.61548,9.10245,1.37573,16.53268,2.39282,23.38345l38.58435,259.8942c-.41345,5.48864-8.00513,9.14119-15.10852,9.14119a17.49447,17.49447,0,0,1-12.01-4.27515,34.45694,34.45694,0,0,0-46.19678-.00008l-22.917,21.25054a18.46743,18.46743,0,0,1-24.43872.00008l-22.91687-21.25061a34.457,34.457,0,0,0-46.19678,0l-22.91711,21.25054a18.467,18.467,0,0,1-24.43848,0L81.333,468.08479a34.45683,34.45683,0,0,0-46.19678,0,17.49457,17.49457,0,0,1-12.01013,4.27515c-7.10339,0-14.69495-3.65255-15.1084-9.14119l38.58435-259.8942c1.01709-6.85077,1.77734-14.281,2.39282-23.38339A126.00866,126.00866,0,0,1,174.7041,62.576m0-8h-.00024A134.00866,134.00866,0,0,0,41.01306,179.40149c-.5144,7.60876-1.20435,15.20468-2.32422,22.74823L0,462.7474C0,473.47184,11.39478,480.36,23.1261,480.36a25.49825,25.49825,0,0,0,17.44971-6.40911,26.46032,26.46032,0,0,1,35.31763,0l22.917,21.25054a26.46049,26.46049,0,0,0,35.31763,0l22.91711-21.25054a26.46032,26.46032,0,0,1,35.31763,0l22.917,21.25054a26.46049,26.46049,0,0,0,35.31763,0l22.91711-21.25054a26.46032,26.46032,0,0,1,35.31763,0A25.49383,25.49383,0,0,0,326.28174,480.36c11.73022,0,23.12622-6.88913,23.12622-17.61257L310.71912,202.14972c-1.11987-7.54355-1.80981-15.13947-2.32422-22.74823A134.00866,134.00866,0,0,0,174.7041,54.576Z" fill="#1a4b7f"/><path d="M135.704,156.576a21,21,0,0,1-21,21h0a21,21,0,0,1-21-21" fill="none" stroke="#1a4b7f" stroke-linecap="round" stroke-miterlimit="10" stroke-width="10"/><path d="M230.704,156.576a21,21,0,0,1-21,21h0a21,21,0,0,1-21-21" fill="none" stroke="#1a4b7f" stroke-linecap="round" stroke-miterlimit="10" stroke-width="10"/><path d="M181.704,227.576a21,21,0,0,1-21,21h0" fill="none" stroke="#1a4b7f" stroke-linecap="round" stroke-miterlimit="10" stroke-width="10"/><path d="M168.61169,100.24744c-28.14844,0-51.68945-5.86523-70.01855-17.437A119.21071,119.21071,0,0,1,111.2699,44.0907c14.52246-26.60254,37.353-40.09082,67.85791-40.09082,19.9585,0,36.2168,6.19336,48.32373,18.4082,20.74316,20.92773,23.80908,53.9292,24.26025,63.65088C241.90662,89.35583,206.62781,100.24744,168.61169,100.24744Z" fill="#fff"/><path d="M179.12793,8c18.83508,0,34.12732,5.78461,45.45215,17.19308,18.0282,18.16153,22.05408,46.19778,22.95178,58.03067-12.451,3.98337-44.50366,13.0235-78.9198,13.0235-26.25,0-48.31189-5.2-65.6687-15.46576A114.36871,114.36871,0,0,1,114.666,46.21793C128.42664,20.8584,150.11475,8,179.12793,8m0-8C101.55188,0,94.323,84.805,94.323,84.805c21.99011,14.71347,48.8374,19.44229,74.28906,19.44229,45.86707,0,87.17627-15.37173,87.17627-15.37173S256.704,0,179.12793,0Z" fill="#1a4b7f"/><path d="M243.57667,48.17S329.704,22.576,341.704,57.576s-86,31-86,31S254.44936,58.76388,243.57667,48.17Z" fill="#fff" stroke="#1a4b7f" stroke-linejoin="bevel" stroke-width="8"/></g></g></svg>