<svg xmlns="http://www.w3.org/2000/svg" viewBox="0 0 349.40796 447.37994"><title>ghostin_happy</title><g id="Layer_2" data-name="Layer 2"><g id="Layer_1-2" data-name="Layer 1"><path d="M232.93835,443.37991a21.834,21.834,0,0,1-14.939-5.6875l-22.917-21.25049a30.45728,30.45728,0,0,0-40.75684,0l-22.917,21.25049a22.464,22.464,0,0,1-29.87842,0l-22.917-21.25049a30.45728,30.45728,0,0,0-40.75684,0,21.46883,21.46883,0,0,1-14.73047,5.3418,24.03328,24.03328,0,0,1-13.647-4.0459c-2.45068-1.73975-5.36328-4.75342-5.47559-9.29395L42.64539,148.16116c1.001-6.74268,1.75049-14.07227,2.3584-23.06592a130.006,130.006,0,0,1,259.40039,0c.60791,8.99365,1.35742,16.32324,2.3584,23.06592L345.40466,408.4429c-.21094,8.24854-10.02393,13.34082-19.123,13.34082a21.46345,21.46345,0,0,1-14.72949-5.3418,30.45792,30.45792,0,0,0-40.75732,0l-22.917,21.25049A21.83429,21.83429,0,0,1,232.93835,443.37991Z" fill="#fff"/><path d="M174.70416,8A126.00866,126.00866,0,0,1,300.41309,125.36514c.61542,9.10309,1.37579,16.53333,2.39288,23.38339l38.58435,259.8942c-.41351,5.48864-8.00519,9.14119-15.10858,9.14119a17.49485,17.49485,0,0,1-12.01007-4.27515,34.45694,34.45694,0,0,0-46.19678-.00008l-22.917,21.25054a18.46727,18.46727,0,0,1-24.4386.00008l-22.91693-21.25061a34.457,34.457,0,0,0-46.19678,0l-22.917,21.25054a18.46708,18.46708,0,0,1-24.43854,0L81.333,413.50877a34.45683,34.45683,0,0,0-46.19678,0,17.49457,17.49457,0,0,1-12.01013,4.27515c-7.10339,0-14.69495-3.65255-15.1084-9.14119l38.58435-259.8942c1.01709-6.85077,1.77734-14.281,2.39282-23.38339A126.00866,126.00866,0,0,1,174.70416,8m0-8h-.00037A134.00865,134.00865,0,0,0,41.01306,124.82547c-.5144,7.60876-1.20435,15.20468-2.32422,22.74823L0,408.17138C0,418.89582,11.39478,425.784,23.1261,425.784a25.49825,25.49825,0,0,0,17.44971-6.40911,26.46032,26.46032,0,0,1,35.31763,0l22.91711,21.25054a26.46041,26.46041,0,0,0,35.31757,0l22.917-21.25054a26.46047,26.46047,0,0,1,35.31775,0l22.91687,21.25054a26.46057,26.46057,0,0,0,35.31769,0l22.91705-21.25054a26.46024,26.46024,0,0,1,35.31757,0h.00012A25.49387,25.49387,0,0,0,326.2818,425.784c11.73022,0,23.12616-6.88913,23.12616-17.61257L310.71924,147.5737c-1.12006-7.54355-1.80994-15.13947-2.3244-22.74823A134.00851,134.00851,0,0,0,174.70416,0Z" fill="#1a4b7f"/><rect x="93.70398" y="64.00003" width="42" height="58.99998" rx="20.99998" ry="20.99998" fill="none" stroke="#1a4b7f" stroke-linecap="round" stroke-miterlimit="10" stroke-width="10"/><path d="M120.704,84.99995v17c0,11.598-6.71572,21-15,21h0c-8.28426,0-15-9.402-15-21v-17c0-11.598,6.71572-21,15-21h0C113.98823,64,120.704,73.402,120.704,84.99995Z" fill="#1a4b7f"/><rect x="193.70398" y="64.00003" width="42" height="58.99998" rx="20.99998" ry="20.99998" fill="none" stroke="#1a4b7f" stroke-linecap="round" stroke-miterlimit="10" stroke-width="10"/><path d="M220.704,84.99995v17c0,11.598-6.71572,21-15,21h0c-8.28426,0-15-9.402-15-21v-17c0-11.598,6.71572-21,15-21h0C213.98823,64,220.704,73.402,220.704,84.99995Z" fill="#1a4b7f"/><path d="M181.704,133a21,21,0,0,1-21,21h0a21,21,0,0,1-21-21Z" fill="none" stroke="#1a4b7f" stroke-linecap="round" stroke-linejoin="round" stroke-width="10"/><path d="M160.114,346.22838l-18.17648-15.95984a5.97819,5.97819,0,0,1-1.84347-5.98863L155.30654,265.439l-5.93285-13.62159a3.36476,3.36476,0,0,1,.81748-3.82968l5.60184-5.109A3.36476,3.36476,0,0,1,158.06038,242H170.208a3.36476,3.36476,0,0,1,2.26738.87868l5.60184,5.109a3.36476,3.36476,0,0,1,.81748,3.82968L172.96186,265.439l15.21254,58.84094a5.97819,5.97819,0,0,1-1.84347,5.98863l-18.17648,15.95984A6.09312,6.09312,0,0,1,160.114,346.22838Z" fill="#1a4b7f"/><line x1="144.65247" y1="266.35217" x2="189.70398" y2="266.35217" fill="#1a4b7f" stroke="#fff" stroke-miterlimit="10" stroke-width="8"/></g></g></svg>