<svg xmlns="http://www.w3.org/2000/svg" viewBox="0 0 349.40801 447.38001"><title>ghostin</title><g id="Layer_2" data-name="Layer 2"><g id="Layer_1-2" data-name="Layer 1"><path d="M232.93841,443.37992a21.83166,21.83166,0,0,1-14.939-5.6875l-22.917-21.25a30.45587,30.45587,0,0,0-40.75684,0l-22.917,21.25a22.464,22.464,0,0,1-29.87842,0l-22.917-21.25a30.45587,30.45587,0,0,0-40.75684,0,21.47115,21.47115,0,0,1-14.73047,5.3418,24.03388,24.03388,0,0,1-13.647-4.04687c-2.45068-1.73926-5.36328-4.75293-5.47559-9.29395L42.64544,148.16117c1.001-6.74268,1.75049-14.07227,2.3584-23.06592a130.006,130.006,0,0,1,259.40039,0c.60791,8.99365,1.35742,16.32324,2.3584,23.06592l38.64209,260.28125c-.21094,8.249-10.02393,13.3418-19.123,13.3418a21.46576,21.46576,0,0,1-14.72949-5.3418,30.4565,30.4565,0,0,0-40.75732,0l-22.917,21.25A21.832,21.832,0,0,1,232.93841,443.37992Z" fill="#fff"/><path d="M174.70415,8a126.00864,126.00864,0,0,1,125.709,117.36515c.61545,9.103,1.37582,16.53323,2.39282,23.38339l38.58435,259.8942c-.41348,5.48865-8.0051,9.14117-15.10849,9.14117a17.49462,17.49462,0,0,1-12.01007-4.27515,34.457,34.457,0,0,0-46.19678-.00006l-22.91716,21.25061a18.46682,18.46682,0,0,1-24.43846-.00009l-22.91692-21.25046a34.457,34.457,0,0,0-46.19678-.00006l-22.91714,21.25061a18.46683,18.46683,0,0,1-24.43847-.00009l-22.917-21.25046a34.457,34.457,0,0,0-46.19684,0,17.4947,17.4947,0,0,1-12.01008,4.27515c-7.1034,0-14.695-3.65253-15.10848-9.14117l38.5844-259.8942c1.017-6.85031,1.77739-14.28053,2.39285-23.38339A126.00861,126.00861,0,0,1,174.70415,8m0-8h-.00023A134.00859,134.00859,0,0,0,41.01315,124.82546c-.51446,7.60876-1.20438,15.2047-2.32431,22.74823L0,408.17139C0,418.89582,11.39481,425.784,23.12619,425.784a25.49787,25.49787,0,0,0,17.44958-6.40912h.00008a26.46032,26.46032,0,0,1,35.31762,0l22.91708,21.25052a26.46023,26.46023,0,0,0,35.31761,0l22.91708-21.25052a26.46032,26.46032,0,0,1,35.31761,0l22.917,21.25052a26.46023,26.46023,0,0,0,35.31761,0l22.91708-21.25052a26.4603,26.4603,0,0,1,35.3176,0h.00009a25.49386,25.49386,0,0,0,17.44958,6.40912c11.73019,0,23.12619-6.88916,23.12619-17.61258l-38.68878-260.5977c-1.11993-7.54346-1.80984-15.13947-2.32431-22.74823A134.00863,134.00863,0,0,0,174.70415,0Z" fill="#1a4b7f"/><path d="M188.704,123a21,21,0,0,1,21-21h0a21,21,0,0,1,21,21" fill="none" stroke="#1a4b7f" stroke-linecap="round" stroke-miterlimit="10" stroke-width="10"/><path d="M93.704,123a21,21,0,0,1,21-21h0a21,21,0,0,1,21,21" fill="none" stroke="#1a4b7f" stroke-linecap="round" stroke-miterlimit="10" stroke-width="10"/><path d="M181.704,173a21,21,0,0,1-21,21h0a21,21,0,0,1-21-21" fill="none" stroke="#1a4b7f" stroke-linecap="round" stroke-miterlimit="10" stroke-width="10"/><path d="M160.114,346.22838l-18.17648-15.95984a5.97819,5.97819,0,0,1-1.84347-5.98863L155.30659,265.439l-5.93285-13.62159a3.36476,3.36476,0,0,1,.81748-3.82968l5.60184-5.109A3.36476,3.36476,0,0,1,158.06043,242h12.14763a3.36476,3.36476,0,0,1,2.26738.87868l5.60184,5.109a3.36476,3.36476,0,0,1,.81748,3.82968L172.96191,265.439l15.21254,58.84094a5.97819,5.97819,0,0,1-1.84347,5.98863L168.1545,346.22838A6.09312,6.09312,0,0,1,160.114,346.22838Z" fill="#1a4b7f"/><line x1="144.65252" y1="266.35218" x2="189.70403" y2="266.35218" fill="#1a4b7f" stroke="#fff" stroke-miterlimit="10" stroke-width="8"/></g></g></svg>