<svg xmlns="http://www.w3.org/2000/svg" viewBox="0 0 349.40796 447.38001"><title>ghostin_blush</title><g id="Layer_2" data-name="Layer 2"><g id="Layer_1-2" data-name="Layer 1"><path d="M232.93835,443.37992a21.83166,21.83166,0,0,1-14.939-5.6875l-22.917-21.25a30.45587,30.45587,0,0,0-40.75684,0l-22.917,21.25a22.464,22.464,0,0,1-29.87842,0l-22.917-21.25a30.45587,30.45587,0,0,0-40.75684,0,21.47115,21.47115,0,0,1-14.73047,5.3418,24.03388,24.03388,0,0,1-13.647-4.04687c-2.45068-1.73926-5.36328-4.75293-5.47559-9.29395L42.64539,148.16117c1.001-6.74268,1.75049-14.07227,2.3584-23.06592a130.006,130.006,0,0,1,259.40039,0c.60791,8.99365,1.35742,16.32324,2.3584,23.06592l38.64209,260.28125c-.21094,8.249-10.02393,13.3418-19.123,13.3418a21.46576,21.46576,0,0,1-14.72949-5.3418,30.4565,30.4565,0,0,0-40.75732,0l-22.917,21.25A21.832,21.832,0,0,1,232.93835,443.37992Z" fill="#fff"/><path d="M174.7041,8a126.00848,126.00848,0,0,1,125.709,117.36507c.61548,9.10254,1.37573,16.53285,2.39282,23.38347l38.58435,259.8942c-.41345,5.48865-8.00513,9.14117-15.10852,9.14117a17.49436,17.49436,0,0,1-12.01-4.27515,34.457,34.457,0,0,0-46.19678-.00006l-22.91711,21.25061a18.46714,18.46714,0,0,1-24.4386,0L197.80237,413.5087a34.45706,34.45706,0,0,0-46.19678,0l-22.91711,21.25061a18.46684,18.46684,0,0,1-24.43848-.00009L81.333,413.50876a34.45688,34.45688,0,0,0-46.19678,0,17.49446,17.49446,0,0,1-12.01013,4.27515c-7.10339,0-14.69495-3.65253-15.1084-9.14117l38.58435-259.8942c1.01709-6.85077,1.77734-14.281,2.39282-23.38339A126.00869,126.00869,0,0,1,174.7041,8m0-8h-.00024A134.00867,134.00867,0,0,0,41.01306,124.82546c-.5144,7.60876-1.20435,15.2047-2.32422,22.74823L0,408.17139C0,418.89582,11.39478,425.784,23.1261,425.784a25.49828,25.49828,0,0,0,17.44971-6.40912,26.46034,26.46034,0,0,1,35.31763,0l22.917,21.25052a26.46025,26.46025,0,0,0,35.31763,0l22.91711-21.25052a26.46034,26.46034,0,0,1,35.31763,0l22.917,21.25052a26.46025,26.46025,0,0,0,35.31763,0l22.91711-21.25052a26.46034,26.46034,0,0,1,35.31763,0,25.49391,25.49391,0,0,0,17.44958,6.40912c11.73022,0,23.12622-6.88916,23.12622-17.61258l-38.68884-260.5977c-1.11987-7.54346-1.80981-15.13947-2.32422-22.74823A134.00867,134.00867,0,0,0,174.7041,0Z" fill="#1a4b7f"/><path d="M188.704,123a21,21,0,0,1,21-21h0a21,21,0,0,1,21,21l-23,3-2-22" fill="none" stroke="#1a4b7f" stroke-linecap="round" stroke-miterlimit="10" stroke-width="10"/><path d="M94.704,123a21,21,0,0,1,21-21h0a21,21,0,0,1,21,21l-23,3-2-22" fill="none" stroke="#1a4b7f" stroke-linecap="round" stroke-miterlimit="10" stroke-width="10"/><path d="M181.704,173a21,21,0,0,1-21,21h0a21,21,0,0,1-21-21" fill="none" stroke="#1a4b7f" stroke-linecap="round" stroke-miterlimit="10" stroke-width="10"/><path d="M160.114,346.22838l-18.17648-15.95984a5.97819,5.97819,0,0,1-1.84347-5.98863L155.30654,265.439l-5.93285-13.62159a3.36476,3.36476,0,0,1,.81748-3.82968l5.60184-5.109A3.36476,3.36476,0,0,1,158.06038,242H170.208a3.36476,3.36476,0,0,1,2.26738.87868l5.60184,5.109a3.36476,3.36476,0,0,1,.81748,3.82968L172.96186,265.439l15.21254,58.84094a5.97819,5.97819,0,0,1-1.84347,5.98863l-18.17648,15.95984A6.09312,6.09312,0,0,1,160.114,346.22838Z" fill="#1a4b7f"/><line x1="144.65247" y1="266.35218" x2="189.70398" y2="266.35218" fill="#1a4b7f" stroke="#fff" stroke-miterlimit="10" stroke-width="8"/><circle cx="222.20398" cy="165.50003" r="15.5" fill="#1a4b7f"/><circle cx="95.20398" cy="165.50003" r="15.5" fill="#1a4b7f"/></g></g></svg>